<svg id="Layer_1" data-name="Layer 1" xmlns="http://www.w3.org/2000/svg" viewBox="0 0 125.27 20.63"><defs><style>.cls-1{fill:#58595b;}.cls-2{fill:#f04d60;}</style></defs><title>logo</title><path class="cls-1" d="M.71,21.38V6.59H3v.77a4.4,4.4,0,0,1,1.51-1,5.33,5.33,0,0,1,1.81-.3,5,5,0,0,1,2.31.54A4.37,4.37,0,0,1,10.4,8.14a5.63,5.63,0,0,1,4.32-2.05,5.18,5.18,0,0,1,3.74,1.48,4.72,4.72,0,0,1,1.6,3.62V21.38H17.78V11.19A2.88,2.88,0,0,0,16.88,9a3,3,0,0,0-4.3,0,2.88,2.88,0,0,0-.9,2.15V21.38H9.4V11.19A2.85,2.85,0,0,0,8.49,9a3,3,0,0,0-2.18-.9A3.35,3.35,0,0,0,4,9a2.77,2.77,0,0,0-1,2.18V21.38Z" transform="translate(-0.71 -0.99)"/><path class="cls-1" d="M22.31,17.29a3.83,3.83,0,0,1,1.78-3.22,7.91,7.91,0,0,1,4-1.34,8.34,8.34,0,0,0,2.48-.5,1.6,1.6,0,0,0,1.17-1.54,2.53,2.53,0,0,0-.9-2,3.13,3.13,0,0,0-2.15-.81,3.59,3.59,0,0,0-2.28.77,2.5,2.5,0,0,0-1,2v.5H23.05v-1A3.75,3.75,0,0,1,24.79,7a6.47,6.47,0,0,1,3.85-1.14A6,6,0,0,1,32.34,7,3.79,3.79,0,0,1,34,10.18v7.65a1.42,1.42,0,0,0,.47,1.07,1.46,1.46,0,0,0,1.07.44v2h-.9A3,3,0,0,1,33,20.92a2.72,2.72,0,0,1-1-1.31,4.21,4.21,0,0,1-2,1.54,7,7,0,0,1-2.58.47,5.48,5.48,0,0,1-3.69-1.17A3.91,3.91,0,0,1,22.31,17.29Zm2.28,0a1.92,1.92,0,0,0,.87,1.61,3.3,3.3,0,0,0,1.95.57,4.44,4.44,0,0,0,3-1,3.21,3.21,0,0,0,1.31-2.65l0-2a6.33,6.33,0,0,1-3.4,1l-.64,0a3.88,3.88,0,0,0-2.1.78A2.11,2.11,0,0,0,24.59,17.29Z" transform="translate(-0.71 -0.99)"/><path class="cls-1" d="M37.71,21.38v-15H40V9A4,4,0,0,1,41.8,6.86a5.17,5.17,0,0,1,2.78-.77h1V8.37h-1a4.21,4.21,0,0,0-3.29,1.55A5.18,5.18,0,0,0,40,13.48v7.9Z" transform="translate(-0.71 -0.99)"/><path class="cls-1" d="M47.57,3.27V1h2.28V3.27Zm0,18.11V6.09h2.28V21.38Z" transform="translate(-0.71 -0.99)"/><path class="cls-1" d="M52.33,17.29a3.83,3.83,0,0,1,1.78-3.22,7.91,7.91,0,0,1,4-1.34,8.2,8.2,0,0,0,2.48-.5,1.6,1.6,0,0,0,1.18-1.54,2.51,2.51,0,0,0-.91-2,3.1,3.1,0,0,0-2.14-.81,3.55,3.55,0,0,0-2.28.77,2.5,2.5,0,0,0-1,2v.5H53.07v-1A3.75,3.75,0,0,1,54.81,7a6.46,6.46,0,0,1,3.84-1.14A6,6,0,0,1,62.36,7,3.81,3.81,0,0,1,64,10.18v7.65a1.42,1.42,0,0,0,.47,1.07,1.46,1.46,0,0,0,1.07.44v2h-.9A3,3,0,0,1,63,20.92a2.74,2.74,0,0,1-1-1.31,4.23,4.23,0,0,1-2,1.54,7,7,0,0,1-2.59.47,5.47,5.47,0,0,1-3.68-1.17A3.91,3.91,0,0,1,52.33,17.29Zm2.28,0a1.92,1.92,0,0,0,.87,1.61,3.3,3.3,0,0,0,2,.57,4.46,4.46,0,0,0,3-1,3.24,3.24,0,0,0,1.31-2.65l0-2a6.37,6.37,0,0,1-3.41,1l-.63,0a3.89,3.89,0,0,0-2.11.78A2.13,2.13,0,0,0,54.61,17.29Z" transform="translate(-0.71 -0.99)"/><path class="cls-1" d="M67.69,21.38V6.59H70V8.14a3.82,3.82,0,0,1,1.78-1.58,6.21,6.21,0,0,1,2.44-.47,5.43,5.43,0,0,1,4,1.74A5.71,5.71,0,0,1,79.9,12v9.42H77.62V12a3.51,3.51,0,0,0-1.11-2.62,3.73,3.73,0,0,0-2.68-1.07,3.86,3.86,0,0,0-2.72,1.07A3.47,3.47,0,0,0,70,12v9.42Z" transform="translate(-0.71 -0.99)"/><path class="cls-1" d="M82.25,13.74A8.42,8.42,0,0,1,84.12,8a6.28,6.28,0,0,1,5-2.14,6.38,6.38,0,0,1,5,2.14A8.43,8.43,0,0,1,96,13.74a8.4,8.4,0,0,1-1.88,5.73,6.39,6.39,0,0,1-5,2.15,6.29,6.29,0,0,1-5-2.15A8.39,8.39,0,0,1,82.25,13.74Zm2.28,0A6.75,6.75,0,0,0,85.77,18a4.32,4.32,0,0,0,6.71,0,6.81,6.81,0,0,0,1.24-4.25,6.63,6.63,0,0,0-1.24-4.21,4.3,4.3,0,0,0-6.71,0A6.57,6.57,0,0,0,84.53,13.72Z" transform="translate(-0.71 -0.99)"/><path class="cls-2" d="M98.68,21.38V1H101V8.51a4.69,4.69,0,0,1,1.73-1.75A4.34,4.34,0,0,1,105,6.09a5.61,5.61,0,0,1,4.61,2.35,8.3,8.3,0,0,1,1.74,5.3,9,9,0,0,1-1.7,5.46A5.63,5.63,0,0,1,105,21.62a4.15,4.15,0,0,1-2.37-.77A5.65,5.65,0,0,1,101,19v2.41ZM101,13.74a7.09,7.09,0,0,0,1,3.92,3.47,3.47,0,0,0,6.1,0,7.17,7.17,0,0,0,1-3.92,7,7,0,0,0-1-3.86,3.47,3.47,0,0,0-3-1.74,3.54,3.54,0,0,0-3,1.74A7,7,0,0,0,101,13.74Z" transform="translate(-0.71 -0.99)"/><path class="cls-2" d="M113.24,13.74A8.85,8.85,0,0,1,115,8a6.08,6.08,0,0,1,9.26,0A8.85,8.85,0,0,1,126,13.74v.77H115.52a5.68,5.68,0,0,0,1.1,3.66,3.66,3.66,0,0,0,3,1.4,4.08,4.08,0,0,0,2.65-.83,3.07,3.07,0,0,0,1.17-2.18h2.28a5.12,5.12,0,0,1-1.87,3.68,6.37,6.37,0,0,1-4.23,1.38A5.67,5.67,0,0,1,115,19.47,8.82,8.82,0,0,1,113.24,13.74Zm2.28-1.28h8.15a5.5,5.5,0,0,0-1.28-3.32,3.74,3.74,0,0,0-5.56,0A5.34,5.34,0,0,0,115.52,12.46Z" transform="translate(-0.71 -0.99)"/></svg>